<?xml version="1.0" encoding="utf-8"?>
<!-- Generator: Adobe Illustrator 23.0.1, SVG Export Plug-In . SVG Version: 6.00 Build 0)  -->
<svg version="1.1" id="Layer_1" xmlns="http://www.w3.org/2000/svg" xmlns:xlink="http://www.w3.org/1999/xlink" x="0px" y="0px"
	 viewBox="0 0 655.7 275.8" style="enable-background:new 0 0 655.7 275.8;" xml:space="preserve">
<style type="text/css">
	.st0{fill:#FFFFFF;}
</style>
<path class="st0" d="M6,266.9H0v6h6V266.9z M6,9.1v-6H0v6H6z M45.3,9.1h6v-6h-6V9.1z M45.3,113.4h-6v6h6V113.4z M80.4,113.4v6h6v-6
	H80.4z M80.4,9.1v-6h-6v6H80.4z M119.7,9.1h6v-6h-6V9.1z M119.7,266.9v6h6v-6H119.7z M80.4,266.9h-6v6h6V266.9z M80.4,147.1h6v-6h-6
	V147.1z M45.3,147.1v-6h-6v6H45.3z M45.3,266.9v6h6v-6H45.3z M12,266.9V9.1H0v257.8H12z M6,15.1h39.3v-12H6V15.1z M39.3,9.1v104.3
	h12V9.1H39.3z M45.3,119.4h35.2v-12H45.3V119.4z M86.4,113.4V9.1h-12v104.3H86.4z M80.4,15.1h39.3v-12H80.4V15.1z M113.7,9.1v257.8
	h12V9.1H113.7z M119.7,260.9H80.4v12h39.3V260.9z M86.4,266.9V147.1h-12v119.8H86.4z M80.4,141.1H45.3v12h35.2V141.1z M39.3,147.1
	v119.8h12V147.1H39.3z M45.3,260.9H6v12h39.3V260.9z"/>
<path class="st0" d="M578.7,226.9l-5.6,2.1l0,0l0,0L578.7,226.9z M607,226.8l5.6,2.1l0,0l0,0L607,226.8z M606.8,48.5l-5.6,2.2l0,0.1
	l0,0.1L606.8,48.5z M579.3,48.5l-5.4-2.6l0,0l0,0L579.3,48.5z M549.5,251.2l-4.8,3.6l0,0l0,0L549.5,251.2z M636.6,24l-4.9,3.5l0,0
	l0,0L636.6,24z M569.3,195.3c0,15.1,1.1,26.7,3.8,33.8l11.2-4.2c-1.8-4.8-3-14.4-3-29.5H569.3z M573.1,229.1c1.6,4,4.1,7.3,7.7,9.6
	c3.6,2.2,7.7,3.2,12.1,3.2v-12c-2.7,0-4.5-0.6-5.7-1.3c-1.1-0.7-2.1-1.9-2.9-3.8L573.1,229.1z M592.9,241.8c4.4,0,8.6-0.9,12.1-3.2
	c3.6-2.3,6.1-5.7,7.6-9.8l-11.3-4.2c-0.7,2-1.7,3.2-2.8,3.9c-1.1,0.7-2.9,1.3-5.6,1.3V241.8z M612.6,228.8
	c2.6-7.2,3.7-18.7,3.7-33.6h-12c0,14.8-1.2,24.4-3,29.4L612.6,228.8z M616.3,195.3V75.1h-12v120.1H616.3z M616.3,75.1
	c0-12.4-1.2-22.3-4-29l-11.1,4.7c1.9,4.4,3,12.3,3,24.3H616.3z M612.4,46.3c-1.5-3.8-4-7-7.4-9.2c-3.4-2.2-7.4-3-11.6-3v12
	c2.5,0,4.2,0.5,5.2,1.2c1,0.6,1.9,1.7,2.7,3.5L612.4,46.3z M593.3,34c-4.2,0-8.1,0.9-11.6,3c-3.5,2.1-6.1,5.2-7.9,8.9l10.8,5.2
	c0.9-1.9,2.1-3.1,3.3-3.8c1.2-0.7,2.9-1.3,5.4-1.3V34z M573.9,45.9c-3.2,6.8-4.5,16.8-4.5,29.1h12c0-11.9,1.3-19.6,3.4-23.9
	L573.9,45.9z M569.3,75v120.3h12V75H569.3z M643.7,194.8c0,24.7-4.4,42-12.3,52.9l9.7,7c10.1-13.9,14.6-34.2,14.6-59.9H643.7z
	 M631.4,247.7c-7.5,10.4-19.8,16.1-38.4,16.1v12c21.1,0,37.6-6.7,48.1-21.1L631.4,247.7z M593.1,263.8c-18.4,0-30.9-5.7-38.7-16.2
	l-9.6,7.2c10.7,14.3,27.3,21,48.3,21V263.8z M554.4,247.7c-8.1-11-12.6-28.3-12.6-52.8h-12c0,25.6,4.7,46,14.9,59.9L554.4,247.7z
	 M541.8,194.8V76.9h-12v117.9H541.8z M541.8,76.9c0-23,4.7-39.1,13.1-49.4c8.2-10.1,20.7-15.5,38.7-15.5V0c-20.6,0-37,6.4-48,19.9
	c-10.9,13.3-15.8,32.7-15.8,57H541.8z M593.6,12c18.7,0,30.9,5.6,38.1,15.5l9.7-7C631.2,6.4,614.8,0,593.6,0V12z M631.7,27.6
	c7.7,10.6,12,26.7,12,49.3h12c0-23.8-4.5-43-14.3-56.4L631.7,27.6z M643.7,76.9v117.9h12V76.9H643.7z"/>
<path class="st0" d="M285,266.9h-6v6h6V266.9z M285,9.1v-6h-6v6H285z M324.3,9.1h6v-6h-6V9.1z M324.3,233.5h-6v6h6V233.5z
	 M373.9,233.5h6v-6h-6V233.5z M373.9,266.9v6h6v-6H373.9z M291,266.9V9.1h-12v257.8H291z M285,15.1h39.3v-12H285V15.1z M318.3,9.1
	v224.4h12V9.1H318.3z M324.3,239.5h49.7v-12h-49.7V239.5z M367.9,233.5v33.4h12v-33.4H367.9z M373.9,260.9H285v12h88.9V260.9z"/>
<path class="st0" d="M412,266.9h-6v6h6V266.9z M412,9.1v-6h-6v6H412z M451.3,9.1h6v-6h-6V9.1z M451.3,233.5h-6v6h6V233.5z
	 M500.9,233.5h6v-6h-6V233.5z M500.9,266.9v6h6v-6H500.9z M418,266.9V9.1h-12v257.8H418z M412,15.1h39.3v-12H412V15.1z M445.3,9.1
	v224.4h12V9.1H445.3z M451.3,239.5h49.7v-12h-49.7V239.5z M494.9,233.5v33.4h12v-33.4H494.9z M500.9,260.9H412v12h88.9V260.9z"/>
<path class="st0" d="M158,266.9h-6v6h6V266.9z M158,9.1v-6h-6v6H158z M244.4,9.1h6v-6h-6V9.1z M244.4,42.9v6h6v-6H244.4z
	 M197.3,42.9v-6h-6v6H197.3z M197.3,117.9h-6v6h6V117.9z M242.1,117.9h6v-6h-6V117.9z M242.1,151v6h6v-6H242.1z M197.3,151v-6h-6v6
	H197.3z M197.3,233.1h-6v6h6V233.1z M246.2,233.1h6v-6h-6V233.1z M246.2,266.9v6h6v-6H246.2z M164,266.9V9.1h-12v257.8H164z
	 M158,15.1h86.4v-12H158V15.1z M238.4,9.1v33.8h12V9.1H238.4z M244.4,36.9h-47.2v12h47.2V36.9z M191.3,42.9v75h12v-75H191.3z
	 M197.3,123.9h44.8v-12h-44.8V123.9z M236.1,117.9V151h12v-33.1H236.1z M242.1,145h-44.8v12h44.8V145z M191.3,151v82h12v-82H191.3z
	 M197.3,239.1h48.9v-12h-48.9V239.1z M240.2,233.1v33.8h12v-33.8H240.2z M246.2,260.9H158v12h88.2V260.9z"/>
</svg>
