<svg xmlns="http://www.w3.org/2000/svg" viewBox="0 0 450 172.79">
    <defs>
        <style>.a{fill:#ffffff;}</style>
    </defs>
    <path class="a"
          d="M0,172.79V0H52V21.6H26V151.19H52v21.6Z"/>
    <path class="a"
          d="M90.46,112.31v38.84h-26V21.67h95.58l24.12,22.19V90.11l-24.12,22.2ZM148,43.86H90.46V90.11H148l10.21-9.25V53.11Z"/>
    <path class="a"
          d="M362.32,21.67,388.3,45v82.71l-26,23.37H287.16l-26-23.37V45l26-23.37ZM287.16,54v64.73l12.06,10.79h51l12.06-10.79V54L350.26,43.24h-51Z"/>
    <path class="a"
          d="M212,68.84v-25h26v25Zm0,67.5v-25h26v25Z"/>
    <path class="a"
          d="M398,172.79v-21.6h26V21.6H398V0h52V172.79Z"/>
</svg>