<svg width="653" height="30" viewBox="0 0 653 30" fill="none" xmlns="http://www.w3.org/2000/svg">
<path d="M9.27235 29C9.11235 29 8.96568 28.96 8.83235 28.88C8.69902 28.7733 8.61902 28.64 8.59235 28.48L0.67235 1.68C0.645683 1.62666 0.63235 1.56 0.63235 1.48C0.63235 1.16 0.819017 0.999998 1.19235 0.999998H7.99235C8.33902 0.999998 8.55235 1.17333 8.63235 1.52L12.0324 14.56C12.059 14.64 12.099 14.6933 12.1523 14.72C12.2057 14.72 12.2457 14.6667 12.2724 14.56L14.9524 1.52C15.0324 1.17333 15.259 0.999998 15.6324 0.999998H21.4724C21.819 0.999998 22.0324 1.17333 22.1124 1.52L25.1123 14.56C25.139 14.6667 25.179 14.72 25.2324 14.72C25.2857 14.72 25.3257 14.6667 25.3524 14.56L28.3524 1.52C28.4324 1.17333 28.6457 0.999998 28.9924 0.999998H35.8324C36.0457 0.999998 36.1924 1.06666 36.2724 1.2C36.379 1.30666 36.4057 1.46667 36.3524 1.68L29.2324 28.48C29.1524 28.8267 28.939 29 28.5924 29H22.1924C21.819 29 21.5924 28.8267 21.5124 28.48L18.6324 14.72C18.6057 14.64 18.5657 14.6 18.5124 14.6C18.459 14.6 18.419 14.64 18.3924 14.72L15.8724 28.44C15.7924 28.8133 15.579 29 15.2324 29H9.27235ZM65.4533 6.84C65.4533 7.02667 65.4 7.17333 65.2933 7.28C65.1866 7.38667 65.04 7.44 64.8533 7.44H52.8933C52.76 7.44 52.6933 7.50667 52.6933 7.64V11.4C52.6933 11.5333 52.76 11.6 52.8933 11.6H60.2933C60.48 11.6 60.6266 11.6533 60.7333 11.76C60.84 11.8667 60.8933 12.0133 60.8933 12.2V17.4C60.8933 17.5867 60.84 17.7333 60.7333 17.84C60.6266 17.9467 60.48 18 60.2933 18H52.8933C52.76 18 52.6933 18.0667 52.6933 18.2V22.36C52.6933 22.4933 52.76 22.56 52.8933 22.56H64.8533C65.04 22.56 65.1866 22.6133 65.2933 22.72C65.4 22.8267 65.4533 22.9733 65.4533 23.16V28.4C65.4533 28.5867 65.4 28.7333 65.2933 28.84C65.1866 28.9467 65.04 29 64.8533 29H45.7733C45.5866 29 45.44 28.9467 45.3333 28.84C45.2266 28.7333 45.1733 28.5867 45.1733 28.4V1.6C45.1733 1.41333 45.2266 1.26667 45.3333 1.16C45.44 1.05333 45.5866 0.999998 45.7733 0.999998H64.8533C65.04 0.999998 65.1866 1.05333 65.2933 1.16C65.4 1.26667 65.4533 1.41333 65.4533 1.6V6.84ZM74.9858 29C74.7991 29 74.6525 28.9467 74.5458 28.84C74.4391 28.7333 74.3858 28.5867 74.3858 28.4V1.6C74.3858 1.41333 74.4391 1.26667 74.5458 1.16C74.6525 1.05333 74.7991 0.999998 74.9858 0.999998H81.3058C81.4925 0.999998 81.6391 1.05333 81.7458 1.16C81.8525 1.26667 81.9058 1.41333 81.9058 1.6V22.36C81.9058 22.4933 81.9725 22.56 82.1058 22.56H94.4658C94.6525 22.56 94.7991 22.6133 94.9058 22.72C95.0125 22.8267 95.0658 22.9733 95.0658 23.16V28.4C95.0658 28.5867 95.0125 28.7333 94.9058 28.84C94.7991 28.9467 94.6525 29 94.4658 29H74.9858ZM114.005 29.32C111.818 29.32 109.885 28.8933 108.205 28.04C106.552 27.1867 105.258 25.9867 104.325 24.44C103.418 22.8667 102.965 21.0533 102.965 19V10.92C102.965 8.89333 103.418 7.10667 104.325 5.56C105.258 4.01333 106.552 2.81333 108.205 1.96C109.885 1.10667 111.818 0.68 114.005 0.68C116.192 0.68 118.112 1.08 119.765 1.88C121.445 2.68 122.738 3.81333 123.645 5.28C124.578 6.72 125.045 8.4 125.045 10.32C125.045 10.56 124.845 10.7067 124.445 10.76L118.125 11.16H118.005C117.685 11.16 117.525 11.0133 117.525 10.72C117.525 9.62667 117.205 8.76 116.565 8.12C115.925 7.45333 115.072 7.12 114.005 7.12C112.938 7.12 112.085 7.45333 111.445 8.12C110.805 8.76 110.485 9.62667 110.485 10.72V19.32C110.485 20.3867 110.805 21.2533 111.445 21.92C112.085 22.56 112.938 22.88 114.005 22.88C115.072 22.88 115.925 22.56 116.565 21.92C117.205 21.2533 117.525 20.3867 117.525 19.32C117.525 19.16 117.578 19.04 117.685 18.96C117.792 18.88 117.938 18.8533 118.125 18.88L124.445 19.2C124.845 19.2267 125.045 19.36 125.045 19.6C125.045 21.52 124.578 23.2133 123.645 24.68C122.738 26.1467 121.445 27.2933 119.765 28.12C118.112 28.92 116.192 29.32 114.005 29.32ZM144.94 29.48C142.727 29.48 140.767 29.04 139.06 28.16C137.38 27.2533 136.073 26 135.14 24.4C134.207 22.7733 133.74 20.8933 133.74 18.76V11.24C133.74 9.16 134.207 7.32 135.14 5.72C136.073 4.12 137.38 2.88 139.06 2C140.767 1.12 142.727 0.68 144.94 0.68C147.18 0.68 149.14 1.12 150.82 2C152.527 2.88 153.847 4.12 154.78 5.72C155.713 7.32 156.18 9.16 156.18 11.24V18.76C156.18 20.8933 155.713 22.7733 154.78 24.4C153.847 26 152.527 27.2533 150.82 28.16C149.14 29.04 147.18 29.48 144.94 29.48ZM144.94 23.04C146.06 23.04 146.953 22.68 147.62 21.96C148.313 21.2133 148.66 20.2267 148.66 19V11.16C148.66 9.93333 148.313 8.96 147.62 8.24C146.953 7.49333 146.06 7.12 144.94 7.12C143.847 7.12 142.953 7.49333 142.26 8.24C141.593 8.96 141.26 9.93333 141.26 11.16V19C141.26 20.2267 141.593 21.2133 142.26 21.96C142.953 22.68 143.847 23.04 144.94 23.04ZM183.224 1.4C183.384 1.13333 183.624 0.999998 183.944 0.999998H190.184C190.37 0.999998 190.517 1.05333 190.624 1.16C190.73 1.26667 190.784 1.41333 190.784 1.6V28.4C190.784 28.5867 190.73 28.7333 190.624 28.84C190.517 28.9467 190.37 29 190.184 29H183.864C183.677 29 183.53 28.9467 183.424 28.84C183.317 28.7333 183.264 28.5867 183.264 28.4V13.88C183.264 13.7733 183.237 13.72 183.184 13.72C183.13 13.6933 183.077 13.72 183.024 13.8L180.304 18.24C180.144 18.5067 179.904 18.64 179.584 18.64H176.544C176.224 18.64 175.984 18.5067 175.824 18.24L173.104 13.8C173.05 13.72 172.997 13.6933 172.944 13.72C172.89 13.72 172.864 13.7733 172.864 13.88V28.4C172.864 28.5867 172.81 28.7333 172.704 28.84C172.597 28.9467 172.45 29 172.264 29H165.944C165.757 29 165.61 28.9467 165.504 28.84C165.397 28.7333 165.344 28.5867 165.344 28.4V1.6C165.344 1.41333 165.397 1.26667 165.504 1.16C165.61 1.05333 165.757 0.999998 165.944 0.999998H172.184C172.504 0.999998 172.744 1.13333 172.904 1.4L177.944 9.52C178.024 9.68 178.104 9.68 178.184 9.52L183.224 1.4ZM220.578 6.84C220.578 7.02667 220.525 7.17333 220.418 7.28C220.312 7.38667 220.165 7.44 219.978 7.44H208.018C207.885 7.44 207.818 7.50667 207.818 7.64V11.4C207.818 11.5333 207.885 11.6 208.018 11.6H215.418C215.605 11.6 215.752 11.6533 215.858 11.76C215.965 11.8667 216.018 12.0133 216.018 12.2V17.4C216.018 17.5867 215.965 17.7333 215.858 17.84C215.752 17.9467 215.605 18 215.418 18H208.018C207.885 18 207.818 18.0667 207.818 18.2V22.36C207.818 22.4933 207.885 22.56 208.018 22.56H219.978C220.165 22.56 220.312 22.6133 220.418 22.72C220.525 22.8267 220.578 22.9733 220.578 23.16V28.4C220.578 28.5867 220.525 28.7333 220.418 28.84C220.312 28.9467 220.165 29 219.978 29H200.898C200.712 29 200.565 28.9467 200.458 28.84C200.352 28.7333 200.298 28.5867 200.298 28.4V1.6C200.298 1.41333 200.352 1.26667 200.458 1.16C200.565 1.05333 200.712 0.999998 200.898 0.999998H219.978C220.165 0.999998 220.312 1.05333 220.418 1.16C220.525 1.26667 220.578 1.41333 220.578 1.6V6.84ZM264.839 0.999998C265.025 0.999998 265.172 1.05333 265.279 1.16C265.385 1.26667 265.439 1.41333 265.439 1.6V6.88C265.439 7.06667 265.385 7.21333 265.279 7.32C265.172 7.42666 265.025 7.48 264.839 7.48H258.119C257.985 7.48 257.919 7.54666 257.919 7.68V28.4C257.919 28.5867 257.865 28.7333 257.759 28.84C257.652 28.9467 257.505 29 257.319 29H250.999C250.812 29 250.665 28.9467 250.559 28.84C250.452 28.7333 250.399 28.5867 250.399 28.4V7.68C250.399 7.54666 250.332 7.48 250.199 7.48H243.679C243.492 7.48 243.345 7.42666 243.239 7.32C243.132 7.21333 243.079 7.06667 243.079 6.88V1.6C243.079 1.41333 243.132 1.26667 243.239 1.16C243.345 1.05333 243.492 0.999998 243.679 0.999998H264.839ZM284.401 29.48C282.187 29.48 280.227 29.04 278.521 28.16C276.841 27.2533 275.534 26 274.601 24.4C273.667 22.7733 273.201 20.8933 273.201 18.76V11.24C273.201 9.16 273.667 7.32 274.601 5.72C275.534 4.12 276.841 2.88 278.521 2C280.227 1.12 282.187 0.68 284.401 0.68C286.641 0.68 288.601 1.12 290.281 2C291.987 2.88 293.307 4.12 294.241 5.72C295.174 7.32 295.641 9.16 295.641 11.24V18.76C295.641 20.8933 295.174 22.7733 294.241 24.4C293.307 26 291.987 27.2533 290.281 28.16C288.601 29.04 286.641 29.48 284.401 29.48ZM284.401 23.04C285.521 23.04 286.414 22.68 287.081 21.96C287.774 21.2133 288.121 20.2267 288.121 19V11.16C288.121 9.93333 287.774 8.96 287.081 8.24C286.414 7.49333 285.521 7.12 284.401 7.12C283.307 7.12 282.414 7.49333 281.721 8.24C281.054 8.96 280.721 9.93333 280.721 11.16V19C280.721 20.2267 281.054 21.2133 281.721 21.96C282.414 22.68 283.307 23.04 284.401 23.04ZM337.092 1.4C337.252 1.13333 337.492 0.999998 337.812 0.999998H344.052C344.239 0.999998 344.386 1.05333 344.492 1.16C344.599 1.26667 344.652 1.41333 344.652 1.6V28.4C344.652 28.5867 344.599 28.7333 344.492 28.84C344.386 28.9467 344.239 29 344.052 29H337.732C337.546 29 337.399 28.9467 337.292 28.84C337.186 28.7333 337.132 28.5867 337.132 28.4V13.88C337.132 13.7733 337.106 13.72 337.052 13.72C336.999 13.6933 336.946 13.72 336.892 13.8L334.172 18.24C334.012 18.5067 333.772 18.64 333.452 18.64H330.412C330.092 18.64 329.852 18.5067 329.692 18.24L326.972 13.8C326.919 13.72 326.866 13.6933 326.812 13.72C326.759 13.72 326.732 13.7733 326.732 13.88V28.4C326.732 28.5867 326.679 28.7333 326.572 28.84C326.466 28.9467 326.319 29 326.132 29H319.812C319.626 29 319.479 28.9467 319.372 28.84C319.266 28.7333 319.212 28.5867 319.212 28.4V1.6C319.212 1.41333 319.266 1.26667 319.372 1.16C319.479 1.05333 319.626 0.999998 319.812 0.999998H326.052C326.372 0.999998 326.612 1.13333 326.772 1.4L331.812 9.52C331.892 9.68 331.972 9.68 332.052 9.52L337.092 1.4ZM362.447 28.92C362.26 28.92 362.114 28.8667 362.007 28.76C361.9 28.6533 361.847 28.5067 361.847 28.32V19.48L361.807 19.24L353.647 1.72L353.567 1.4C353.567 1.13333 353.74 0.999998 354.087 0.999998H360.967C361.314 0.999998 361.554 1.16 361.687 1.48L365.487 11.04C365.567 11.2267 365.647 11.2267 365.727 11.04L369.527 1.48C369.66 1.16 369.9 0.999998 370.247 0.999998H377.167C377.514 0.999998 377.687 1.13333 377.687 1.4L377.607 1.72L369.367 19.24C369.34 19.2933 369.327 19.3733 369.327 19.48V28.32C369.327 28.5067 369.274 28.6533 369.167 28.76C369.06 28.8667 368.914 28.92 368.727 28.92H362.447ZM413.23 0.999998C415.123 0.999998 416.79 1.38667 418.23 2.16C419.67 2.90667 420.776 3.98667 421.55 5.4C422.35 6.78666 422.75 8.38667 422.75 10.2C422.75 11.9867 422.336 13.56 421.51 14.92C420.683 16.28 419.523 17.3333 418.03 18.08C416.536 18.8267 414.816 19.2 412.87 19.2H408.63C408.496 19.2 408.43 19.2667 408.43 19.4V28.4C408.43 28.5867 408.376 28.7333 408.27 28.84C408.163 28.9467 408.016 29 407.83 29H401.51C401.323 29 401.176 28.9467 401.07 28.84C400.963 28.7333 400.91 28.5867 400.91 28.4V1.6C400.91 1.41333 400.963 1.26667 401.07 1.16C401.176 1.05333 401.323 0.999998 401.51 0.999998H413.23ZM411.99 13.2C412.976 13.2 413.763 12.9467 414.35 12.44C414.963 11.9067 415.27 11.2133 415.27 10.36C415.27 9.48 414.963 8.77333 414.35 8.24C413.763 7.70667 412.976 7.44 411.99 7.44H408.63C408.496 7.44 408.43 7.50667 408.43 7.64V13C408.43 13.1333 408.496 13.2 408.63 13.2H411.99ZM442.254 29.48C440.041 29.48 438.081 29.04 436.374 28.16C434.694 27.2533 433.387 26 432.454 24.4C431.521 22.7733 431.054 20.8933 431.054 18.76V11.24C431.054 9.16 431.521 7.32 432.454 5.72C433.387 4.12 434.694 2.88 436.374 2C438.081 1.12 440.041 0.68 442.254 0.68C444.494 0.68 446.454 1.12 448.134 2C449.841 2.88 451.161 4.12 452.094 5.72C453.027 7.32 453.494 9.16 453.494 11.24V18.76C453.494 20.8933 453.027 22.7733 452.094 24.4C451.161 26 449.841 27.2533 448.134 28.16C446.454 29.04 444.494 29.48 442.254 29.48ZM442.254 23.04C443.374 23.04 444.267 22.68 444.934 21.96C445.627 21.2133 445.974 20.2267 445.974 19V11.16C445.974 9.93333 445.627 8.96 444.934 8.24C444.267 7.49333 443.374 7.12 442.254 7.12C441.161 7.12 440.267 7.49333 439.574 8.24C438.907 8.96 438.574 9.93333 438.574 11.16V19C438.574 20.2267 438.907 21.2133 439.574 21.96C440.267 22.68 441.161 23.04 442.254 23.04ZM477.378 29C477.031 29 476.804 28.8533 476.698 28.56L472.298 18.4C472.244 18.2933 472.164 18.24 472.058 18.24H470.378C470.244 18.24 470.178 18.3067 470.178 18.44V28.4C470.178 28.5867 470.124 28.7333 470.018 28.84C469.911 28.9467 469.764 29 469.578 29H463.258C463.071 29 462.924 28.9467 462.818 28.84C462.711 28.7333 462.658 28.5867 462.658 28.4V1.6C462.658 1.41333 462.711 1.26667 462.818 1.16C462.924 1.05333 463.071 0.999998 463.258 0.999998H475.378C477.191 0.999998 478.778 1.37333 480.138 2.12C481.524 2.86666 482.591 3.92 483.338 5.28C484.111 6.61333 484.498 8.16 484.498 9.92C484.498 11.68 484.058 13.2267 483.178 14.56C482.324 15.8667 481.138 16.8267 479.618 17.44C479.484 17.4933 479.444 17.5867 479.498 17.72L484.578 28.28C484.631 28.44 484.658 28.5333 484.658 28.56C484.658 28.6933 484.604 28.8 484.498 28.88C484.391 28.96 484.258 29 484.098 29H477.378ZM470.378 7.44C470.244 7.44 470.178 7.50667 470.178 7.64V12.32C470.178 12.4533 470.244 12.52 470.378 12.52H474.138C474.991 12.52 475.684 12.2933 476.218 11.84C476.751 11.36 477.018 10.7467 477.018 10C477.018 9.22667 476.751 8.61333 476.218 8.16C475.684 7.68 474.991 7.44 474.138 7.44H470.378ZM514.509 0.999998C514.696 0.999998 514.842 1.05333 514.949 1.16C515.056 1.26667 515.109 1.41333 515.109 1.6V6.88C515.109 7.06667 515.056 7.21333 514.949 7.32C514.842 7.42666 514.696 7.48 514.509 7.48H507.789C507.656 7.48 507.589 7.54666 507.589 7.68V28.4C507.589 28.5867 507.536 28.7333 507.429 28.84C507.322 28.9467 507.176 29 506.989 29H500.669C500.482 29 500.336 28.9467 500.229 28.84C500.122 28.7333 500.069 28.5867 500.069 28.4V7.68C500.069 7.54666 500.002 7.48 499.869 7.48H493.349C493.162 7.48 493.016 7.42666 492.909 7.32C492.802 7.21333 492.749 7.06667 492.749 6.88V1.6C492.749 1.41333 492.802 1.26667 492.909 1.16C493.016 1.05333 493.162 0.999998 493.349 0.999998H514.509ZM544.018 6.84C544.018 7.02667 543.965 7.17333 543.858 7.28C543.751 7.38667 543.605 7.44 543.418 7.44H531.498C531.365 7.44 531.298 7.50667 531.298 7.64V11.4C531.298 11.5333 531.365 11.6 531.498 11.6H538.898C539.085 11.6 539.231 11.6533 539.338 11.76C539.445 11.8667 539.498 12.0133 539.498 12.2V17.4C539.498 17.5867 539.445 17.7333 539.338 17.84C539.231 17.9467 539.085 18 538.898 18H531.498C531.365 18 531.298 18.0667 531.298 18.2V28.4C531.298 28.5867 531.245 28.7333 531.138 28.84C531.031 28.9467 530.885 29 530.698 29H524.378C524.191 29 524.045 28.9467 523.938 28.84C523.831 28.7333 523.778 28.5867 523.778 28.4V1.6C523.778 1.41333 523.831 1.26667 523.938 1.16C524.045 1.05333 524.191 0.999998 524.378 0.999998H543.418C543.605 0.999998 543.751 1.05333 543.858 1.16C543.965 1.26667 544.018 1.41333 544.018 1.6V6.84ZM563.166 29.48C560.953 29.48 558.993 29.04 557.286 28.16C555.606 27.2533 554.3 26 553.366 24.4C552.433 22.7733 551.966 20.8933 551.966 18.76V11.24C551.966 9.16 552.433 7.32 553.366 5.72C554.3 4.12 555.606 2.88 557.286 2C558.993 1.12 560.953 0.68 563.166 0.68C565.406 0.68 567.366 1.12 569.046 2C570.753 2.88 572.073 4.12 573.006 5.72C573.94 7.32 574.406 9.16 574.406 11.24V18.76C574.406 20.8933 573.94 22.7733 573.006 24.4C572.073 26 570.753 27.2533 569.046 28.16C567.366 29.04 565.406 29.48 563.166 29.48ZM563.166 23.04C564.286 23.04 565.18 22.68 565.846 21.96C566.54 21.2133 566.886 20.2267 566.886 19V11.16C566.886 9.93333 566.54 8.96 565.846 8.24C565.18 7.49333 564.286 7.12 563.166 7.12C562.073 7.12 561.18 7.49333 560.486 8.24C559.82 8.96 559.486 9.93333 559.486 11.16V19C559.486 20.2267 559.82 21.2133 560.486 21.96C561.18 22.68 562.073 23.04 563.166 23.04ZM584.17 29C583.983 29 583.837 28.9467 583.73 28.84C583.623 28.7333 583.57 28.5867 583.57 28.4V1.6C583.57 1.41333 583.623 1.26667 583.73 1.16C583.837 1.05333 583.983 0.999998 584.17 0.999998H590.49C590.677 0.999998 590.823 1.05333 590.93 1.16C591.037 1.26667 591.09 1.41333 591.09 1.6V22.36C591.09 22.4933 591.157 22.56 591.29 22.56H603.65C603.837 22.56 603.983 22.6133 604.09 22.72C604.197 22.8267 604.25 22.9733 604.25 23.16V28.4C604.25 28.5867 604.197 28.7333 604.09 28.84C603.983 28.9467 603.837 29 603.65 29H584.17ZM613.539 29C613.352 29 613.206 28.9467 613.099 28.84C612.992 28.7333 612.939 28.5867 612.939 28.4V1.6C612.939 1.41333 612.992 1.26667 613.099 1.16C613.206 1.05333 613.352 0.999998 613.539 0.999998H619.859C620.046 0.999998 620.192 1.05333 620.299 1.16C620.406 1.26667 620.459 1.41333 620.459 1.6V28.4C620.459 28.5867 620.406 28.7333 620.299 28.84C620.192 28.9467 620.046 29 619.859 29H613.539ZM640.804 29.48C638.591 29.48 636.631 29.04 634.924 28.16C633.244 27.2533 631.937 26 631.004 24.4C630.071 22.7733 629.604 20.8933 629.604 18.76V11.24C629.604 9.16 630.071 7.32 631.004 5.72C631.937 4.12 633.244 2.88 634.924 2C636.631 1.12 638.591 0.68 640.804 0.68C643.044 0.68 645.004 1.12 646.684 2C648.391 2.88 649.711 4.12 650.644 5.72C651.577 7.32 652.044 9.16 652.044 11.24V18.76C652.044 20.8933 651.577 22.7733 650.644 24.4C649.711 26 648.391 27.2533 646.684 28.16C645.004 29.04 643.044 29.48 640.804 29.48ZM640.804 23.04C641.924 23.04 642.817 22.68 643.484 21.96C644.177 21.2133 644.524 20.2267 644.524 19V11.16C644.524 9.93333 644.177 8.96 643.484 8.24C642.817 7.49333 641.924 7.12 640.804 7.12C639.711 7.12 638.817 7.49333 638.124 8.24C637.457 8.96 637.124 9.93333 637.124 11.16V19C637.124 20.2267 637.457 21.2133 638.124 21.96C638.817 22.68 639.711 23.04 640.804 23.04Z" fill="white" fill-opacity="0.85"/>
</svg>
