<svg width="29" height="24" viewBox="0 0 29 24" fill="none" xmlns="http://www.w3.org/2000/svg">
<path d="M15.4419 15.7579L27.6654 3.06105C28.0546 2.65672 28.035 2.01129 27.6218 1.63139L26.8139 0.888489C26.4163 0.522877 25.8002 0.539093 25.4224 0.925116L15.4421 11.122C15.0499 11.5226 14.405 11.5226 14.0128 11.122L3.77373 0.660716C3.40867 0.287729 2.81815 0.25822 2.41772 0.592955L1.45487 1.39783C1.00745 1.77184 0.973676 2.44779 1.38158 2.86454L14.0069 15.7638C14.4013 16.1668 15.0508 16.1641 15.4419 15.7579Z" fill="white" fill-opacity="0.75"/>
<path d="M15.4257 23.3076L27.6139 11.223C28.0254 10.8149 28.005 10.1436 27.5695 9.76128L26.7958 9.08223C26.4033 8.73772 25.8118 8.75325 25.438 9.11788L15.4257 18.8825C15.0373 19.2613 14.4177 19.2613 14.0293 18.8825L3.75898 8.8663C3.39796 8.51421 2.83126 8.48602 2.43708 8.80055L1.51052 9.53989C1.04033 9.91507 1.0054 10.6175 1.43604 11.0375L14.0235 23.3134C14.4142 23.6945 15.0382 23.6919 15.4257 23.3076Z" fill="white" fill-opacity="0.75"/>
</svg>
